# xmcd
#
# Track frame offsets:
#	150
#	12220
#	26262
#
# Disc length: 549 seconds
#
# Revision: 0
# Processed by: cddbd v1.4PL0 Copyright (c) Steve Scherf et al.
# Submitted via: audiograbber 1.81.03
#
DISCID=13022303
DTITLE=Shanley Del - Tunnel Of Love
DYEAR=1992
DGENRE=Country
TTITLE0=Tunnel Of Love
TTITLE1=Give Me One Good Reason
TTITLE2=Together Alone
EXTD=
EXTT0=
EXTT1=
EXTT2=
PLAYORDER=
